<?xml version="1.0" standalone="no"?>
<!DOCTYPE svg PUBLIC "-//W3C//DTD SVG 20010904//EN"
 "http://www.w3.org/TR/2001/REC-SVG-20010904/DTD/svg10.dtd">
<svg version="1.0" xmlns="http://www.w3.org/2000/svg"
 width="200.000000pt" height="200.000000pt" viewBox="0 0 200.000000 200.000000"
 preserveAspectRatio="xMidYMid meet">

<g transform="translate(0.000000,200.000000) scale(0.100000,-0.100000)"
fill="#000000" stroke="none">
<path d="M585 1505 l-25 -24 0 -266 c0 -229 -2 -265 -15 -265 -19 0 -55 -36
-55 -55 0 -22 37 -55 60 -55 12 0 35 -10 51 -22 31 -23 31 -23 396 -21 339 2
367 4 401 22 20 11 50 22 65 26 52 11 56 79 6 97 l-29 10 0 264 0 265 -25 24
-24 25 -391 0 -391 0 -24 -25z m462 -20 c2 -5 -16 -10 -40 -11 -46 0 -60 4
-53 15 7 11 91 7 93 -4z m315 -62 c16 -15 18 -36 18 -245 l0 -228 -380 0 -380
0 0 227 c0 197 2 229 17 245 15 17 40 18 361 18 307 0 347 -2 364 -17z m-254
-505 c-3 -9 -33 -14 -89 -16 -90 -3 -129 2 -129 18 0 6 45 10 111 10 84 0 110
-3 107 -12z m-528 -23 c0 -8 -4 -15 -9 -15 -13 0 -22 16 -14 24 11 11 23 6 23
-9z m88 -2 c2 -9 -8 -13 -32 -13 -26 0 -36 4 -36 16 0 19 61 16 68 -3z m675
-68 c2 -10 -655 -20 -681 -10 -7 3 -10 9 -7 15 9 14 684 9 688 -5z"/>
<path d="M656 1405 c-16 -17 -22 -45 -8 -45 8 0 34 52 28 57 -2 2 -11 -3 -20
-12z"/>
<path d="M933 1370 c-49 -29 -63 -60 -76 -160 -10 -85 -10 -94 8 -128 60 -111
214 -110 269 3 18 35 19 47 8 128 -6 49 -18 100 -27 113 -39 61 -123 81 -182
44z m136 -25 c16 -14 33 -36 36 -48 18 -60 19 -57 -27 -57 -37 0 -45 4 -55 27
-7 15 -13 44 -13 65 0 46 15 49 59 13z m-59 -115 c0 -16 -4 -30 -10 -30 -5 0
-10 14 -10 30 0 17 5 30 10 30 6 0 10 -13 10 -30z m-37 -30 c3 -12 14 -20 27
-20 13 0 24 8 27 20 7 28 78 29 93 1 25 -48 -1 -130 -52 -161 -88 -54 -198 10
-198 116 0 50 14 64 61 64 28 0 38 -5 42 -20z"/>
<path d="M942 1127 c-23 -24 -23 -24 -3 -48 22 -27 42 -18 24 10 -8 13 -8 22
-1 29 6 6 9 15 6 22 -2 7 -13 1 -26 -13z"/>
<path d="M1030 1137 c0 -9 5 -19 10 -22 8 -5 7 -11 0 -21 -21 -25 -5 -36 18
-11 l22 23 -25 24 c-20 19 -25 20 -25 7z"/>
<path d="M990 1109 c-7 -11 -9 -24 -5 -27 7 -7 35 25 35 40 0 16 -19 8 -30
-13z"/>
<path d="M647 1333 c-11 -10 -8 -111 3 -118 6 -4 10 18 10 59 0 66 -1 72 -13
59z"/>
<path d="M799 627 c0 -1 -1 -30 -2 -65 l-2 -62 48 0 c38 0 47 3 47 17 0 13 -3
14 -12 5 -7 -7 -20 -12 -30 -12 -15 0 -18 9 -18 54 0 39 -4 55 -15 60 -8 3
-15 4 -16 3z"/>
<path d="M1535 565 c0 -51 3 -65 15 -65 12 0 14 12 12 65 -5 89 -27 89 -27 0z"/>
<path d="M1595 565 c0 -51 3 -65 15 -65 12 0 14 12 12 65 -5 89 -27 89 -27 0z"/>
<path d="M285 573 c-10 -26 -22 -54 -28 -60 -7 -9 -5 -13 6 -13 8 0 17 9 20
20 9 35 54 24 48 -12 0 -5 8 -8 18 -8 19 0 19 2 -3 57 -12 31 -26 58 -32 60
-6 2 -19 -18 -29 -44z m35 -9 c0 -8 -7 -14 -15 -14 -17 0 -18 2 -9 24 7 18 24
12 24 -10z"/>
<path d="M1264 560 c0 -33 3 -60 8 -60 4 0 8 21 9 48 l0 47 19 -42 c11 -24 23
-43 28 -43 5 0 16 17 25 38 l15 37 1 -42 c1 -34 5 -43 19 -43 15 0 17 8 14 60
-4 70 -23 80 -49 25 -9 -19 -20 -35 -23 -35 -3 0 -14 16 -23 35 -26 54 -42 45
-43 -25z"/>
<path d="M1440 610 c0 -5 5 -10 10 -10 6 0 10 5 10 10 0 6 -4 10 -10 10 -5 0
-10 -4 -10 -10z"/>
<path d="M1480 610 c0 -5 5 -10 10 -10 6 0 10 5 10 10 0 6 -4 10 -10 10 -5 0
-10 -4 -10 -10z"/>
<path d="M420 581 c-21 -5 -25 -12 -25 -44 0 -23 5 -37 13 -37 7 0 12 14 12
36 0 28 3 35 18 32 12 -2 17 -13 17 -36 0 -19 5 -32 12 -32 18 0 16 55 -3 74
-8 9 -16 15 -17 15 -1 -1 -13 -4 -27 -8z"/>
<path d="M535 581 c-27 -5 -30 -10 -30 -44 0 -26 4 -37 15 -37 10 0 15 10 15
32 0 23 5 34 18 36 14 3 17 -4 17 -32 0 -23 5 -36 13 -36 16 0 11 65 -7 78 -6
4 -24 6 -41 3z"/>
<path d="M633 583 c-24 -9 -13 -23 12 -17 15 4 25 2 25 -5 0 -6 -11 -13 -24
-17 -53 -13 -35 -55 20 -47 28 4 30 8 26 36 -2 18 -11 38 -20 45 -17 13 -20
13 -39 5z m28 -66 c-13 -13 -26 -3 -16 12 3 6 11 8 17 5 6 -4 6 -10 -1 -17z"/>
<path d="M918 579 c-43 -25 -7 -100 39 -82 16 6 15 8 -6 13 -34 8 -39 30 -7
30 32 0 40 14 20 34 -18 19 -23 19 -46 5z m28 -27 c-22 -5 -30 3 -21 18 5 8
11 7 22 -2 15 -12 14 -13 -1 -16z"/>
<path d="M1028 582 c-25 -3 -28 -7 -28 -43 0 -29 4 -39 16 -39 11 0 14 5 10
16 -9 23 2 54 20 54 9 0 14 -11 14 -35 0 -22 5 -35 13 -35 16 0 10 77 -6 82
-7 2 -24 2 -39 0z"/>
<path d="M1123 583 c-24 -9 -13 -23 12 -17 15 4 25 2 25 -5 0 -6 -11 -13 -25
-17 -15 -4 -25 -13 -25 -24 0 -24 9 -29 46 -23 28 4 30 8 26 36 -7 50 -24 65
-59 50z m37 -52 c0 -12 -20 -25 -27 -18 -7 7 6 27 18 27 5 0 9 -4 9 -9z"/>
<path d="M1448 579 c-25 -14 -24 -65 2 -79 14 -8 26 -8 40 0 27 14 27 65 1 80
-23 12 -22 12 -43 -1z m37 -35 c0 -19 -6 -30 -17 -32 -14 -3 -18 3 -18 26 0
16 3 32 7 36 14 13 28 -1 28 -30z"/>
<path d="M1678 582 c-25 -3 -28 -7 -28 -43 0 -28 4 -39 15 -39 10 0 15 11 15
35 0 24 5 35 15 35 10 0 15 -11 15 -35 0 -25 4 -35 16 -35 11 0 14 5 10 16 -3
9 -6 26 -6 39 0 26 -12 32 -52 27z"/>
<path d="M715 550 c-4 -6 7 -10 24 -10 17 0 31 5 31 10 0 6 -11 10 -24 10 -14
0 -28 -4 -31 -10z"/>
<path d="M702 293 c2 -40 7 -49 24 -51 11 -2 26 4 33 12 17 20 4 56 -20 56
-10 0 -19 7 -19 15 0 8 -5 15 -11 15 -6 0 -9 -19 -7 -47z m48 -18 c0 -16 -6
-25 -15 -25 -9 0 -15 9 -15 25 0 16 6 25 15 25 9 0 15 -9 15 -25z"/>
<path d="M843 333 c-8 -3 -13 -22 -13 -49 0 -42 2 -44 28 -44 34 0 52 16 52
46 0 30 -38 57 -67 47z m46 -30 c11 -21 -3 -53 -24 -53 -10 0 -15 11 -15 35 0
38 22 48 39 18z"/>
<path d="M1181 293 c0 -29 3 -53 7 -53 4 0 6 17 4 38 -6 64 -10 69 -11 15z"/>
<path d="M495 296 c6 -54 21 -67 36 -30 l12 29 10 -27 c6 -16 14 -28 18 -28
10 0 32 68 26 83 -2 6 -9 -4 -14 -23 l-9 -35 -17 30 -16 30 -12 -35 -12 -34
-14 39 -13 40 5 -39z"/>
<path d="M624 296 c-11 -28 1 -51 26 -53 l25 -3 -25 12 -25 12 28 4 c20 2 27
8 25 20 -4 22 -46 28 -54 8z m36 -6 c0 -5 -7 -10 -16 -10 -8 0 -12 5 -9 10 3
6 10 10 16 10 5 0 9 -4 9 -10z"/>
<path d="M940 295 c-18 -22 -1 -49 31 -52 23 -1 23 -1 2 4 -29 6 -30 23 -2 23
14 0 19 5 17 17 -4 24 -32 28 -48 8z m40 -5 c0 -5 -7 -10 -15 -10 -8 0 -15 5
-15 10 0 6 7 10 15 10 8 0 15 -4 15 -10z"/>
<path d="M1022 280 c14 -41 26 -46 38 -15 15 39 11 55 -4 20 l-13 -30 -8 28
c-4 15 -11 27 -16 27 -4 0 -3 -14 3 -30z"/>
<path d="M1096 292 c-10 -31 3 -52 33 -51 23 2 24 2 4 6 -29 6 -30 23 -2 23
14 0 19 5 17 18 -5 25 -45 28 -52 4z m39 -2 c3 -5 -1 -10 -9 -10 -9 0 -16 5
-16 10 0 6 4 10 9 10 6 0 13 -4 16 -10z"/>
<path d="M1224 296 c-10 -25 0 -51 20 -54 27 -6 48 25 35 49 -12 22 -47 25
-55 5z m44 -24 c2 -14 -2 -22 -12 -22 -19 0 -28 14 -20 35 9 21 28 14 32 -13z"/>
<path d="M1310 266 c0 -25 5 -46 10 -46 6 0 10 4 10 9 0 5 9 11 21 14 16 4 20
12 17 34 -2 22 -9 29 -30 31 -27 3 -28 2 -28 -42z m45 9 c0 -10 -6 -20 -12
-22 -8 -3 -13 5 -13 22 0 17 5 25 13 23 6 -3 12 -13 12 -23z"/>
<path d="M1401 292 c-13 -24 4 -52 32 -51 21 0 21 1 -3 12 l-25 11 28 4 c21 2
27 8 23 19 -3 8 -6 17 -6 19 0 13 -41 1 -49 -14z m39 -2 c0 -5 -7 -10 -15 -10
-8 0 -15 5 -15 10 0 6 7 10 15 10 8 0 15 -4 15 -10z"/>
<path d="M1480 275 c0 -19 5 -35 10 -35 6 0 10 13 10 29 0 16 6 32 13 34 6 3
2 6 -10 6 -20 1 -23 -4 -23 -34z"/>
</g>
</svg>
